<svg xmlns="http://www.w3.org/2000/svg" viewBox="0 0 90 190" width="150" height="150">
  <!-- River -->
  <path d="M0 80 Q 20 70, 40 80 T 80 80 T 100 80" stroke="#1E90FF" stroke-width="2" fill="transparent"/>
  <path d="M0 100 Q 20 90, 40 100 T 80 100 T 100 100" stroke="#1E90FF" stroke-width="2" fill="transparent"/>
  <path d="M0 120 Q 20 110, 40 120 T 80 120 T 100 120" stroke="#1E90FF" stroke-width="2" fill="transparent"/>
  <path d="M0 140 Q 20 130, 40 140 T 80 140 T 100 140" stroke="#1E90FF" stroke-width="2" fill="transparent"/>
  <!-- River banks -->
  <path d="M0 80 Q 10 75, 20 78 T 40 80 T 60 83 T 80 80 T 100 82" stroke="saddlebrown" stroke-width="3" fill="transparent"/>
  <path d="M0 140 Q 10 135, 20 138 T 40 140 T 60 143 T 80 140 T 100 142" stroke="saddlebrown" stroke-width="3" fill="transparent"/>
</svg>
